<svg width="16" height="16" viewBox="0 0 16 16" fill="none" xmlns="http://www.w3.org/2000/svg">
<path d="M14.4376 2.50559C13.4036 1.37916 12.025 0.804443 10.3247 0.804443C9.70429 0.804443 9.12986 0.873409 8.60139 1.03433C8.0959 1.19525 7.65933 1.40214 7.2917 1.67801C6.94705 1.95387 6.64834 2.20674 6.44155 2.45962C6.23476 2.6895 6.05094 2.94237 5.86713 3.24123V1.12628H0.950043L0.97302 1.83893C0.97302 2.32168 0.995997 3.79295 0.995997 6.27571C0.995997 8.75847 0.995997 11.9769 0.97302 15.9769H5.8901V7.70099C5.8901 7.19525 5.93606 6.78145 6.05094 6.4826C6.25774 5.97686 6.57941 5.54008 6.993 5.19525C7.40659 4.85042 7.93506 4.6895 8.57842 4.6895C9.42857 4.6895 10.0719 4.98835 10.4625 5.58605C10.8761 6.18375 11.0599 7.01134 11.0599 8.04582V15.9769H15.977V7.47111C16 5.2872 15.4945 3.63203 14.4376 2.50559Z" fill="black"/>
</svg>
